<svg width="71" height="121" viewBox="0 0 71 121" fill="none" xmlns="http://www.w3.org/2000/svg">
<path d="M0.651703 0H70.7217V120.12H0.651703V0Z" fill="#B5B4B9"/>
<path d="M27.3917 83.4H63.0217C64.1417 83.4 64.1417 83.4 64.1417 84.6C64.1417 85.68 64.1417 85.68 63.0117 85.68H27.3817C26.1817 85.68 26.1817 85.68 26.1817 84.6C26.1817 83.4 26.1817 83.4 27.3817 83.4H27.3917ZM27.4517 89.52H62.9517C64.4917 89.52 64.4917 89.52 64.4917 91.08V91.44C64.4917 93 64.4917 93 62.9517 93H27.4517C25.8517 93 25.8517 93 25.8517 91.44V91.08C25.8517 89.52 25.8517 89.52 27.4517 89.52ZM27.6017 97.08H63.1617C64.7117 97.08 64.7117 97.08 64.7117 98.64V99C64.7117 100.56 64.7117 100.56 63.1717 100.56H27.6217C26.0817 100.56 26.0817 100.56 26.0817 99V98.64C26.0817 97.08 26.0817 97.08 27.6317 97.08H27.6017ZM60.0117 58.32C60.0117 61.44 57.4917 63.96 54.2717 63.96C51.0517 63.96 48.4717 61.44 48.4717 58.32C48.4717 55.2 51.0517 52.68 54.2717 52.68C57.4917 52.68 60.0117 55.2 60.0117 58.32Z" fill="#4139F8"/>
<path d="M57.7017 58.32C57.7017 60.24 56.1617 61.8 54.2017 61.8C52.2417 61.8 50.6317 60.24 50.6317 58.32C50.6317 56.4 52.2317 54.84 54.2017 54.84C56.1617 54.84 57.7017 56.4 57.7017 58.32Z" fill="#4139F8"/>
</svg>
